<svg xmlns="http://www.w3.org/2000/svg" xmlns:xlink="http://www.w3.org/1999/xlink" width="3402" zoomAndPan="magnify" viewBox="0 0 2551.5 708.749996" height="945" preserveAspectRatio="xMidYMid meet" version="1.0"><defs><g/><clipPath id="e1582d34d4"><path d="M 123 0 L 2434 0 L 2434 708.5 L 123 708.5 Z M 123 0 " clip-rule="nonzero"/></clipPath><clipPath id="bba7c3a506"><path d="M 0.0351562 0 L 2310.421875 0 L 2310.421875 708.5 L 0.0351562 708.5 Z M 0.0351562 0 " clip-rule="nonzero"/></clipPath><clipPath id="e8ace29af0"><path d="M 0.0351562 180 L 1292 180 L 1292 522 L 0.0351562 522 Z M 0.0351562 180 " clip-rule="nonzero"/></clipPath><clipPath id="01da4e5044"><rect x="0" width="1292" y="0" height="342"/></clipPath><clipPath id="6166084f10"><path d="M 1350 0 L 2310.421875 0 L 2310.421875 708.5 L 1350 708.5 Z M 1350 0 " clip-rule="nonzero"/></clipPath><clipPath id="5f6543cb09"><rect x="0" width="961" y="0" height="709"/></clipPath><clipPath id="d68f2b5b6d"><rect x="0" width="2311" y="0" height="709"/></clipPath><clipPath id="6cbf4a10b0"><rect x="0" width="2311" y="0" height="709"/></clipPath></defs><g clip-path="url(#e1582d34d4)"><g transform="matrix(1, 0, 0, 1, 123, 0.000000000000130927)"><g clip-path="url(#6cbf4a10b0)"><g clip-path="url(#bba7c3a506)"><g transform="matrix(1, 0, 0, 1, 0, 0.000000000000130927)"><g clip-path="url(#d68f2b5b6d)"><g clip-path="url(#e8ace29af0)"><g transform="matrix(1, 0, 0, 1, 0, 180)"><g clip-path="url(#01da4e5044)"><g fill="#000000" fill-opacity="1"><g transform="translate(0.298541, 234.050764)"><g><path d="M 26.796875 0 L 8.296875 0 C 6.804688 0 5.796875 -0.476562 5.265625 -1.4375 C 4.734375 -2.394531 4.785156 -3.617188 5.421875 -5.109375 L 109.390625 -224.203125 C 110.242188 -225.472656 110.9375 -226.535156 111.46875 -227.390625 C 112 -228.242188 112.6875 -228.671875 113.53125 -228.671875 L 114.5 -228.671875 C 115.34375 -228.671875 116.03125 -228.242188 116.5625 -227.390625 C 117.09375 -226.535156 117.675781 -225.472656 118.3125 -224.203125 L 222.609375 -5.109375 C 223.242188 -3.617188 223.296875 -2.394531 222.765625 -1.4375 C 222.234375 -0.476562 221.117188 0 219.421875 0 L 200.921875 0 C 198.367188 0 196.242188 -1.703125 194.546875 -5.109375 L 169.671875 -59.3125 L 58.359375 -59.3125 L 33.484375 -5.109375 C 31.785156 -1.703125 29.554688 0 26.796875 0 Z M 114.171875 -184.96875 L 113.859375 -184.96875 L 66.96875 -81 L 161.0625 -81 Z M 114.171875 -184.96875 "/></g></g></g><g fill="#000000" fill-opacity="1"><g transform="translate(206.948644, 234.050764)"><g><path d="M 191.03125 -218.140625 L 191.03125 -205.390625 C 191.03125 -201.984375 189.4375 -200.28125 186.25 -200.28125 L 109.703125 -200.28125 L 109.703125 -5.109375 C 109.703125 -1.703125 108.109375 0 104.921875 0 L 89.609375 0 C 87.484375 0 86.101562 -0.367188 85.46875 -1.109375 C 84.832031 -1.859375 84.515625 -3.191406 84.515625 -5.109375 L 84.515625 -200.28125 L 8.296875 -200.28125 C 6.171875 -200.28125 4.785156 -200.648438 4.140625 -201.390625 C 3.503906 -202.140625 3.1875 -203.472656 3.1875 -205.390625 L 3.1875 -218.140625 C 3.1875 -221.546875 4.890625 -223.25 8.296875 -223.25 L 186.25 -223.25 C 188.375 -223.25 189.703125 -222.875 190.234375 -222.125 C 190.765625 -221.382812 191.03125 -220.054688 191.03125 -218.140625 Z M 191.03125 -218.140625 "/></g></g></g><g fill="#000000" fill-opacity="1"><g transform="translate(401.16219, 234.050764)"><g><path d="M 182.421875 -218.140625 L 182.421875 -206.34375 C 182.421875 -202.9375 180.828125 -201.234375 177.640625 -201.234375 L 55.8125 -201.234375 L 55.8125 -123.734375 L 171.90625 -123.734375 C 175.300781 -123.734375 177 -122.035156 177 -118.640625 L 177 -106.84375 C 177 -103.4375 175.300781 -101.734375 171.90625 -101.734375 L 55.8125 -101.734375 L 55.8125 -22 L 177.640625 -22 C 180.828125 -22 182.421875 -20.300781 182.421875 -16.90625 L 182.421875 -5.109375 C 182.421875 -1.703125 180.828125 0 177.640625 0 L 35.71875 0 C 32.3125 0 30.609375 -1.703125 30.609375 -5.109375 L 30.609375 -218.140625 C 30.609375 -221.546875 32.3125 -223.25 35.71875 -223.25 L 177.640625 -223.25 C 180.828125 -223.25 182.421875 -221.546875 182.421875 -218.140625 Z M 182.421875 -218.140625 "/></g></g></g><g fill="#000000" fill-opacity="1"><g transform="translate(603.348406, 234.050764)"><g><path d="M 166.484375 0 L 36.671875 0 C 33.273438 0 31.578125 -1.703125 31.578125 -5.109375 L 31.578125 -218.140625 C 31.578125 -221.546875 33.273438 -223.25 36.671875 -223.25 L 51.671875 -223.25 C 55.066406 -223.25 56.765625 -221.546875 56.765625 -218.140625 L 56.765625 -22 L 166.484375 -22 C 169.671875 -22 171.265625 -20.300781 171.265625 -16.90625 L 171.265625 -5.109375 C 171.265625 -1.703125 169.671875 0 166.484375 0 Z M 166.484375 0 "/></g></g></g><g fill="#000000" fill-opacity="1"><g transform="translate(785.124664, 234.050764)"><g><path d="M 32.84375 -5.109375 L 32.84375 -218.140625 C 32.84375 -221.546875 34.546875 -223.25 37.953125 -223.25 L 53.265625 -223.25 C 56.453125 -223.25 58.046875 -221.546875 58.046875 -218.140625 L 58.046875 -5.109375 C 58.046875 -1.703125 56.453125 0 53.265625 0 L 37.953125 0 C 34.546875 0 32.84375 -1.703125 32.84375 -5.109375 Z M 32.84375 -5.109375 "/></g></g></g><g fill="#000000" fill-opacity="1"><g transform="translate(876.012747, 234.050764)"><g><path d="M 182.421875 -218.140625 L 182.421875 -206.34375 C 182.421875 -202.9375 180.828125 -201.234375 177.640625 -201.234375 L 55.8125 -201.234375 L 55.8125 -123.734375 L 171.90625 -123.734375 C 175.300781 -123.734375 177 -122.035156 177 -118.640625 L 177 -106.84375 C 177 -103.4375 175.300781 -101.734375 171.90625 -101.734375 L 55.8125 -101.734375 L 55.8125 -22 L 177.640625 -22 C 180.828125 -22 182.421875 -20.300781 182.421875 -16.90625 L 182.421875 -5.109375 C 182.421875 -1.703125 180.828125 0 177.640625 0 L 35.71875 0 C 32.3125 0 30.609375 -1.703125 30.609375 -5.109375 L 30.609375 -218.140625 C 30.609375 -221.546875 32.3125 -223.25 35.71875 -223.25 L 177.640625 -223.25 C 180.828125 -223.25 182.421875 -221.546875 182.421875 -218.140625 Z M 182.421875 -218.140625 "/></g></g></g><g fill="#000000" fill-opacity="1"><g transform="translate(1078.198964, 234.050764)"><g><path d="M 196.140625 0 L 181.140625 0 C 177.742188 0 174.875 -1.703125 172.53125 -5.109375 L 113.859375 -87.390625 L 56.765625 -87.390625 L 56.765625 -5.109375 C 56.765625 -2.972656 56.390625 -1.585938 55.640625 -0.953125 C 54.898438 -0.316406 53.578125 0 51.671875 0 L 36.671875 0 C 34.765625 0 33.4375 -0.316406 32.6875 -0.953125 C 31.945312 -1.585938 31.578125 -2.972656 31.578125 -5.109375 L 31.578125 -218.140625 C 31.578125 -221.546875 33.273438 -223.25 36.671875 -223.25 L 112.578125 -223.25 C 121.722656 -223.25 130.863281 -222.179688 140 -220.046875 C 149.144531 -217.921875 157.488281 -214.304688 165.03125 -209.203125 C 172.582031 -204.109375 178.644531 -197.253906 183.21875 -188.640625 C 187.789062 -180.023438 190.078125 -169.234375 190.078125 -156.265625 C 190.078125 -137.347656 185.453125 -122.625 176.203125 -112.09375 C 166.953125 -101.570312 154.882812 -94.289062 140 -90.25 L 199.96875 -6.0625 C 201.238281 -3.9375 201.394531 -2.394531 200.4375 -1.4375 C 199.476562 -0.476562 198.046875 0 196.140625 0 Z M 110.984375 -201.5625 L 56.765625 -201.5625 L 56.765625 -109.078125 L 110.984375 -109.078125 C 129.910156 -109.078125 143.726562 -113.328125 152.4375 -121.828125 C 161.15625 -130.328125 165.515625 -141.804688 165.515625 -156.265625 C 165.515625 -172.210938 160.519531 -183.75 150.53125 -190.875 C 140.539062 -198 127.359375 -201.5625 110.984375 -201.5625 Z M 110.984375 -201.5625 "/></g></g></g></g></g></g><g clip-path="url(#6166084f10)"><g transform="matrix(1, 0, 0, 1, 1350, 0.000000000000130927)"><g clip-path="url(#5f6543cb09)"><g fill="#000000" fill-opacity="1"><g transform="translate(0.346567, 507.849711)"><g><path d="M 47.09375 8.1875 C 46.757812 11.945312 46.675781 15.703125 46.84375 19.453125 C 47.007812 23.210938 47.09375 27.140625 47.09375 31.234375 C 37.195312 33.273438 30.710938 29.519531 27.640625 19.96875 C 25.597656 13.144531 25.085938 5.804688 26.109375 -2.046875 C 26.796875 -8.867188 27.734375 -15.519531 28.921875 -22 C 30.117188 -28.488281 31.226562 -35.148438 32.25 -41.984375 C 33.28125 -47.785156 34.050781 -53.585938 34.5625 -59.390625 C 35.070312 -65.191406 35.664062 -70.992188 36.34375 -76.796875 C 37.03125 -80.890625 37.882812 -84.984375 38.90625 -89.078125 C 46.414062 -115.359375 53.835938 -141.640625 61.171875 -167.921875 C 68.515625 -194.203125 75.941406 -220.484375 83.453125 -246.765625 C 89.929688 -269.972656 96.5 -293.097656 103.15625 -316.140625 C 109.8125 -339.179688 116.722656 -362.132812 123.890625 -385 C 126.960938 -394.894531 130.628906 -404.707031 134.890625 -414.4375 C 139.160156 -424.164062 143.515625 -433.804688 147.953125 -443.359375 C 150.003906 -447.460938 152.648438 -451.132812 155.890625 -454.375 C 159.140625 -457.613281 163.320312 -459.40625 168.4375 -459.75 C 170.488281 -459.75 172.535156 -459.492188 174.578125 -458.984375 C 176.628906 -458.472656 178.847656 -458.046875 181.234375 -457.703125 C 167.242188 -411.285156 153.25 -364.863281 139.25 -318.4375 C 125.257812 -272.019531 110.925781 -224.582031 96.25 -176.125 C 100.34375 -179.1875 103.5 -181.484375 105.71875 -183.015625 C 107.9375 -184.554688 109.726562 -186.007812 111.09375 -187.375 C 149.320312 -228.332031 187.632812 -269.203125 226.03125 -309.984375 C 264.425781 -350.773438 302.738281 -391.484375 340.96875 -432.109375 C 349.84375 -441.316406 358.882812 -450.1875 368.09375 -458.71875 C 377.3125 -467.25 386.703125 -475.785156 396.265625 -484.328125 C 401.378906 -489.097656 407.007812 -492.675781 413.15625 -495.0625 C 419.300781 -497.457031 425.957031 -497.800781 433.125 -496.09375 C 435.507812 -495.75 437.726562 -494.894531 439.78125 -493.53125 C 441.832031 -492.164062 443.878906 -490.972656 445.921875 -489.953125 C 443.535156 -482.097656 440.378906 -475.441406 436.453125 -469.984375 C 432.523438 -464.523438 426.46875 -460.769531 418.28125 -458.71875 C 415.550781 -458.039062 413.078125 -456.59375 410.859375 -454.375 C 408.640625 -452.15625 406.503906 -450.019531 404.453125 -447.96875 C 358.722656 -400.53125 312.898438 -353.003906 266.984375 -305.390625 C 221.078125 -257.773438 175.257812 -210.25 129.53125 -162.8125 C 126.457031 -159.738281 123.554688 -156.492188 120.828125 -153.078125 C 118.097656 -149.660156 115.023438 -146.078125 111.609375 -142.328125 C 122.867188 -131.398438 131.570312 -119.109375 137.71875 -105.453125 C 143.863281 -91.804688 150.007812 -77.988281 156.15625 -64 C 173.5625 -24.40625 191.476562 15.015625 209.90625 54.265625 C 228.332031 93.515625 247.785156 132.253906 268.265625 170.484375 C 269.296875 172.867188 270.40625 175.425781 271.59375 178.15625 C 272.789062 180.894531 273.898438 183.628906 274.921875 186.359375 C 267.410156 189.429688 262.289062 190.878906 259.5625 190.703125 C 256.832031 190.535156 253.765625 188.40625 250.359375 184.3125 C 247.960938 181.238281 245.65625 178.164062 243.4375 175.09375 C 241.21875 172.019531 239.085938 168.945312 237.046875 165.875 C 221.003906 142.664062 206.15625 118.6875 192.5 93.9375 C 178.84375 69.195312 165.875 44.195312 153.59375 18.9375 C 145.0625 1.53125 136.613281 -15.957031 128.25 -33.53125 C 119.882812 -51.113281 111.609375 -68.609375 103.421875 -86.015625 C 101.367188 -90.109375 99.316406 -94.285156 97.265625 -98.546875 C 95.222656 -102.816406 92.835938 -107.515625 90.109375 -112.640625 C 88.398438 -110.929688 86.609375 -109.5625 84.734375 -108.53125 C 82.859375 -107.507812 81.578125 -106.316406 80.890625 -104.953125 C 78.503906 -100.515625 76.203125 -95.988281 73.984375 -91.375 C 71.765625 -86.769531 69.800781 -82.082031 68.09375 -77.3125 C 65.019531 -67.070312 62.203125 -56.660156 59.640625 -46.078125 C 57.078125 -35.492188 54.429688 -24.910156 51.703125 -14.328125 C 50.679688 -10.578125 49.742188 -6.820312 48.890625 -3.0625 C 48.035156 0.6875 47.4375 4.4375 47.09375 8.1875 Z M 47.09375 8.1875 "/></g></g></g><g fill="#000000" fill-opacity="1"><g transform="translate(273.7269, 507.849711)"><g><path d="M 167.40625 -95.21875 C 166.039062 -86.007812 164.332031 -76.796875 162.28125 -67.578125 C 160.238281 -58.359375 158.707031 -49.144531 157.6875 -39.9375 C 156.664062 -30.039062 155.984375 -19.972656 155.640625 -9.734375 C 155.296875 0.503906 154.953125 10.578125 154.609375 20.484375 C 154.609375 25.597656 155.546875 30.457031 157.421875 35.0625 C 159.304688 39.675781 162.632812 43.519531 167.40625 46.59375 C 156.488281 46.925781 148.722656 45.554688 144.109375 42.484375 C 139.503906 39.421875 136.179688 32.9375 134.140625 23.03125 C 129.703125 1.53125 128.503906 -19.457031 130.546875 -39.9375 C 131.578125 -48.46875 132.601562 -57 133.625 -65.53125 C 134.644531 -74.0625 135.5 -82.59375 136.1875 -91.125 C 136.53125 -92.488281 136.53125 -94.023438 136.1875 -95.734375 C 135.84375 -97.441406 135.671875 -99.660156 135.671875 -102.390625 C 132.597656 -99.316406 129.863281 -96.671875 127.46875 -94.453125 C 125.082031 -92.234375 122.867188 -90.101562 120.828125 -88.0625 C 113.660156 -80.207031 106.578125 -72.351562 99.578125 -64.5 C 92.578125 -56.65625 85.320312 -48.976562 77.8125 -41.46875 C 72.351562 -36.351562 66.722656 -31.488281 60.921875 -26.875 C 55.117188 -22.269531 49.144531 -17.921875 43 -13.828125 C 38.5625 -10.410156 33.78125 -7.847656 28.65625 -6.140625 C 23.539062 -4.429688 18.253906 -3.578125 12.796875 -3.578125 C -1.878906 -4.265625 -9.046875 -11.601562 -8.703125 -25.59375 C -8.015625 -34.125 -6.648438 -41.804688 -4.609375 -48.640625 C 2.554688 -68.773438 11.769531 -87.628906 23.03125 -105.203125 C 34.300781 -122.785156 47.785156 -138.914062 63.484375 -153.59375 C 67.234375 -157.34375 71.5 -160.664062 76.28125 -163.5625 C 81.0625 -166.46875 85.84375 -168.945312 90.625 -171 C 94.03125 -172.707031 97.78125 -173.816406 101.875 -174.328125 C 105.976562 -174.835938 109.90625 -174.921875 113.65625 -174.578125 C 122.1875 -174.234375 127.816406 -172.097656 130.546875 -168.171875 C 133.273438 -164.253906 134.300781 -157.6875 133.625 -148.46875 C 133.625 -147.445312 133.707031 -146.335938 133.875 -145.140625 C 134.050781 -143.941406 134.304688 -142.492188 134.640625 -140.796875 C 137.035156 -142.835938 139.082031 -144.710938 140.78125 -146.421875 C 142.488281 -148.128906 144.195312 -149.835938 145.90625 -151.546875 C 150.34375 -155.640625 156.144531 -157.515625 163.3125 -157.171875 C 172.53125 -156.492188 176.628906 -152.054688 175.609375 -143.859375 C 174.578125 -135.671875 173.378906 -127.566406 172.015625 -119.546875 C 170.648438 -111.523438 169.113281 -103.414062 167.40625 -95.21875 Z M 19.453125 -20.984375 C 29.347656 -25.421875 40.015625 -32.585938 51.453125 -42.484375 C 62.890625 -52.390625 73.894531 -63.65625 84.46875 -76.28125 C 95.050781 -88.90625 103.925781 -101.363281 111.09375 -113.65625 C 107.6875 -117.40625 106.148438 -121.671875 106.484375 -126.453125 C 106.828125 -131.234375 107.253906 -136.097656 107.765625 -141.046875 C 108.273438 -145.992188 106.992188 -150.515625 103.921875 -154.609375 C 91.984375 -147.441406 79.785156 -136.175781 67.328125 -120.8125 C 54.867188 -105.457031 43.347656 -87.375 32.765625 -66.5625 C 29.015625 -59.726562 25.601562 -52.726562 22.53125 -45.5625 C 19.457031 -38.394531 18.429688 -30.203125 19.453125 -20.984375 Z M 19.453125 -20.984375 "/></g></g></g><g fill="#000000" fill-opacity="1"><g transform="translate(469.803036, 507.849711)"><g><path d="M 173.5625 -133.625 C 173.5625 -131.570312 173.726562 -129.691406 174.0625 -127.984375 C 174.40625 -126.285156 174.40625 -124.921875 174.0625 -123.890625 C 172.363281 -120.140625 170.570312 -116.300781 168.6875 -112.375 C 166.8125 -108.445312 164.679688 -104.609375 162.296875 -100.859375 C 151.367188 -83.109375 138.394531 -67.234375 123.375 -53.234375 C 108.363281 -39.242188 91.984375 -26.789062 74.234375 -15.875 C 58.878906 -5.976562 42.664062 -1.539062 25.59375 -2.5625 C 0 -3.925781 -11.257812 -17.066406 -8.1875 -41.984375 C -7.507812 -45.390625 -6.828125 -48.460938 -6.140625 -51.203125 C -2.734375 -65.535156 1.695312 -79.359375 7.15625 -92.671875 C 12.625 -105.984375 18.941406 -118.78125 26.109375 -131.0625 C 29.859375 -137.550781 33.609375 -141.21875 37.359375 -142.0625 C 41.117188 -142.914062 47.265625 -141.8125 55.796875 -138.75 C 56.484375 -134.988281 56.144531 -131.316406 54.78125 -127.734375 C 53.414062 -124.148438 52.050781 -120.484375 50.6875 -116.734375 C 47.269531 -106.148438 43.851562 -95.484375 40.4375 -84.734375 C 37.03125 -73.984375 33.789062 -63.144531 30.71875 -52.21875 C 28.664062 -45.738281 27.8125 -39.597656 28.15625 -33.796875 C 28.15625 -31.398438 28.75 -29.003906 29.9375 -26.609375 C 31.132812 -24.222656 32.078125 -21.835938 32.765625 -19.453125 C 39.585938 -19.796875 45.644531 -21.242188 50.9375 -23.796875 C 56.226562 -26.359375 61.4375 -29.175781 66.5625 -32.25 C 84.300781 -43.175781 100.679688 -55.632812 115.703125 -69.625 C 130.722656 -83.625 144.375 -99.15625 156.65625 -116.21875 C 159.050781 -118.945312 161.269531 -122.101562 163.3125 -125.6875 C 165.363281 -129.269531 168.78125 -131.914062 173.5625 -133.625 Z M 66.046875 -186.875 C 61.609375 -183.457031 56.488281 -182.175781 50.6875 -183.03125 C 44.882812 -183.882812 40.445312 -186.53125 37.375 -190.96875 C 34.988281 -194.71875 34.476562 -199.066406 35.84375 -204.015625 C 37.207031 -208.960938 40.109375 -212.632812 44.546875 -215.03125 C 50.347656 -218.4375 56.488281 -220.3125 62.96875 -220.65625 C 69.457031 -221 76.113281 -220.316406 82.9375 -218.609375 C 80.882812 -213.828125 79.003906 -209.472656 77.296875 -205.546875 C 75.597656 -201.628906 73.722656 -197.789062 71.671875 -194.03125 C 70.648438 -191.644531 68.773438 -189.257812 66.046875 -186.875 Z M 66.046875 -186.875 "/></g></g></g><g fill="#000000" fill-opacity="1"><g transform="translate(601.885105, 507.849711)"><g><path d="M 150 -144.890625 C 153.414062 -130.554688 153.078125 -116.734375 148.984375 -103.421875 C 148.640625 -102.390625 147.785156 -101.109375 146.421875 -99.578125 C 145.054688 -98.046875 144.03125 -97.445312 143.34375 -97.78125 C 139.25 -98.46875 136.179688 -100.347656 134.140625 -103.421875 C 133.109375 -105.128906 132.335938 -107.175781 131.828125 -109.5625 C 131.316406 -111.945312 130.722656 -114.335938 130.046875 -116.734375 C 129.015625 -119.460938 127.988281 -122.363281 126.96875 -125.4375 C 125.945312 -128.507812 124.753906 -131.921875 123.390625 -135.671875 C 120.992188 -133.285156 118.6875 -131.238281 116.46875 -129.53125 C 114.25 -127.820312 112.285156 -125.941406 110.578125 -123.890625 C 103.410156 -114.679688 96.242188 -105.46875 89.078125 -96.25 C 81.910156 -87.03125 74.742188 -77.644531 67.578125 -68.09375 C 62.117188 -60.925781 56.742188 -53.5 51.453125 -45.8125 C 46.160156 -38.132812 40.613281 -30.539062 34.8125 -23.03125 C 32.082031 -19.28125 29.09375 -15.78125 25.84375 -12.53125 C 22.601562 -9.289062 19.28125 -5.96875 15.875 -2.5625 C 10.40625 2.894531 3.238281 5.457031 -5.625 5.125 C -17.226562 5.125 -21.835938 -0.335938 -19.453125 -11.265625 C -18.085938 -17.742188 -15.867188 -24.398438 -12.796875 -31.234375 C -4.953125 -50.003906 2.894531 -68.6875 10.75 -87.28125 C 18.601562 -105.882812 26.625 -124.40625 34.8125 -142.84375 C 35.832031 -145.570312 36.941406 -148.128906 38.140625 -150.515625 C 39.335938 -152.910156 40.617188 -155.128906 41.984375 -157.171875 C 46.078125 -164.335938 52.898438 -166.046875 62.453125 -162.296875 C 61.773438 -150.003906 59.046875 -138.140625 54.265625 -126.703125 C 49.484375 -115.273438 46.753906 -102.566406 46.078125 -88.578125 C 49.148438 -91.984375 51.707031 -94.878906 53.75 -97.265625 C 55.800781 -99.660156 57.679688 -101.710938 59.390625 -103.421875 C 65.867188 -111.265625 72.351562 -119.113281 78.84375 -126.96875 C 85.332031 -134.820312 91.816406 -142.5 98.296875 -150 C 105.117188 -158.195312 113.820312 -162.632812 124.40625 -163.3125 C 138.40625 -164.675781 146.9375 -158.535156 150 -144.890625 Z M 150 -144.890625 "/></g></g></g><g fill="#000000" fill-opacity="1"><g transform="translate(758.540321, 507.849711)"><g><path d="M 167.40625 -95.21875 C 166.039062 -86.007812 164.332031 -76.796875 162.28125 -67.578125 C 160.238281 -58.359375 158.707031 -49.144531 157.6875 -39.9375 C 156.664062 -30.039062 155.984375 -19.972656 155.640625 -9.734375 C 155.296875 0.503906 154.953125 10.578125 154.609375 20.484375 C 154.609375 25.597656 155.546875 30.457031 157.421875 35.0625 C 159.304688 39.675781 162.632812 43.519531 167.40625 46.59375 C 156.488281 46.925781 148.722656 45.554688 144.109375 42.484375 C 139.503906 39.421875 136.179688 32.9375 134.140625 23.03125 C 129.703125 1.53125 128.503906 -19.457031 130.546875 -39.9375 C 131.578125 -48.46875 132.601562 -57 133.625 -65.53125 C 134.644531 -74.0625 135.5 -82.59375 136.1875 -91.125 C 136.53125 -92.488281 136.53125 -94.023438 136.1875 -95.734375 C 135.84375 -97.441406 135.671875 -99.660156 135.671875 -102.390625 C 132.597656 -99.316406 129.863281 -96.671875 127.46875 -94.453125 C 125.082031 -92.234375 122.867188 -90.101562 120.828125 -88.0625 C 113.660156 -80.207031 106.578125 -72.351562 99.578125 -64.5 C 92.578125 -56.65625 85.320312 -48.976562 77.8125 -41.46875 C 72.351562 -36.351562 66.722656 -31.488281 60.921875 -26.875 C 55.117188 -22.269531 49.144531 -17.921875 43 -13.828125 C 38.5625 -10.410156 33.78125 -7.847656 28.65625 -6.140625 C 23.539062 -4.429688 18.253906 -3.578125 12.796875 -3.578125 C -1.878906 -4.265625 -9.046875 -11.601562 -8.703125 -25.59375 C -8.015625 -34.125 -6.648438 -41.804688 -4.609375 -48.640625 C 2.554688 -68.773438 11.769531 -87.628906 23.03125 -105.203125 C 34.300781 -122.785156 47.785156 -138.914062 63.484375 -153.59375 C 67.234375 -157.34375 71.5 -160.664062 76.28125 -163.5625 C 81.0625 -166.46875 85.84375 -168.945312 90.625 -171 C 94.03125 -172.707031 97.78125 -173.816406 101.875 -174.328125 C 105.976562 -174.835938 109.90625 -174.921875 113.65625 -174.578125 C 122.1875 -174.234375 127.816406 -172.097656 130.546875 -168.171875 C 133.273438 -164.253906 134.300781 -157.6875 133.625 -148.46875 C 133.625 -147.445312 133.707031 -146.335938 133.875 -145.140625 C 134.050781 -143.941406 134.304688 -142.492188 134.640625 -140.796875 C 137.035156 -142.835938 139.082031 -144.710938 140.78125 -146.421875 C 142.488281 -148.128906 144.195312 -149.835938 145.90625 -151.546875 C 150.34375 -155.640625 156.144531 -157.515625 163.3125 -157.171875 C 172.53125 -156.492188 176.628906 -152.054688 175.609375 -143.859375 C 174.578125 -135.671875 173.378906 -127.566406 172.015625 -119.546875 C 170.648438 -111.523438 169.113281 -103.414062 167.40625 -95.21875 Z M 19.453125 -20.984375 C 29.347656 -25.421875 40.015625 -32.585938 51.453125 -42.484375 C 62.890625 -52.390625 73.894531 -63.65625 84.46875 -76.28125 C 95.050781 -88.90625 103.925781 -101.363281 111.09375 -113.65625 C 107.6875 -117.40625 106.148438 -121.671875 106.484375 -126.453125 C 106.828125 -131.234375 107.253906 -136.097656 107.765625 -141.046875 C 108.273438 -145.992188 106.992188 -150.515625 103.921875 -154.609375 C 91.984375 -147.441406 79.785156 -136.175781 67.328125 -120.8125 C 54.867188 -105.457031 43.347656 -87.375 32.765625 -66.5625 C 29.015625 -59.726562 25.601562 -52.726562 22.53125 -45.5625 C 19.457031 -38.394531 18.429688 -30.203125 19.453125 -20.984375 Z M 19.453125 -20.984375 "/></g></g></g></g></g></g></g></g></g></g></g></g></svg>